<svg version="1.2" xmlns="http://www.w3.org/2000/svg" viewBox="0 0 2199 669">
	<style>
		.red { fill: #d14d41 }
        .white { fill: #E6E4D9 }
	</style>
	<g>
		<g>
			<path class="white" d="m1042.9 151.5l-98.6 158.5q-10.3 16.9-18.7 16.9-8.1 0-18.4-16.9l-96.5-158.5h38.6l77.1 128.2 77.8-128.2z"/>
			<path class="red" d="m1092.4 324.1h-30v-172.6h30z"/>
			<path class="red" d="m1325.7 324.1h-109.7q-37.6 0-62.3-25-24.6-25-24.6-63.2 0-37.9 24.4-61.1 24.4-23.3 62.5-23.3h97.6v30.1h-97.6q-24.7 0-40.8 15.9-16 15.9-16 41 0 24.7 16 40.2 16.1 15.4 40.8 15.4h79.6v-37.7h-81.9v-27.5h112z"/>
			<path class="red" d="m1387.9 324.1h-30.1v-172.6h30.1z"/>
			<path class="red" d="m1569.8 324.1h-148.8v-172.6h30v142.6h118.8z"/>
			<path class="red" d="m1814.2 324.1l-38.6-0.2-29.1-48.3h-81.9l18.2-29.8h45.7l-30-49.8-77.9 127.9h-38.6l93.7-155.9q3.6-6.1 9.9-11.2 7.6-5.8 13.6-5.8 6.6 0 13.7 5.6 6 4.8 9.8 11.4z"/>
			<path class="red" d="m2001 309.2q0 16.7-11.4 16.7-8.3 0-18.7-10.3l-110.7-111.3v119.8h-29.8v-157.7q0-6 3.3-10.4 3.3-4.5 9.3-4.5 8.4 0 17.2 8.9l110.7 110.9v-119.8h30.1z"/>
			<path class="red" d="m2197.3 181.6h-67.9v142.5h-29.9v-142.5h-68.2v-30.1h166z"/>
			<path fill-rule="evenodd" class="red" d="m164.4 243.2c0-1.2-0.2-2.3 0-3.5 1.2-10.1 2.5-20.2 3.7-30.3 1.8-14 3.4-28 5.2-42 2-16.4 3.9-32.8 6.2-49.1 2.6-18.2 5.5-36.3 8.3-54.5 1.6-10.3 3.2-20.7 5-31 3-17.6 18.1-30.6 36-32.2 13.2-1.2 26 1 38.8 3.1 34.5 5.8 67.6 16.2 99.6 30.2 2 0.8 4 1.6 6 2.4 2.2 1 4.5 1.9 6.9 2.8 5-2.1 9.9-4.5 15-6.5 16.3-6.4 32.5-13.1 49-18.8 17-5.8 34.5-10 52.4-12.2 6-0.7 12-1.5 18-1.3 11.9 0.3 23.1 3.2 31.7 12.4 5.7 6.1 9.3 13.1 10.6 21.3 2.5 16.3 5.3 32.5 7.8 48.8q3.5 23 6.7 46.1c2.2 16 4.3 31.9 6.3 47.9 2.3 19.4 4.4 38.9 6.6 58.4 0.3 2.6 0.7 5.2 1 7.9l-0.9 0.1q-1.1-5.6-2.3-11.2c-3.2-1-403.2-1.6-414.5-0.5-0.9 3.8-1.7 7.7-2.6 11.7q-0.3 0-0.5 0zm398.8-93.1c-0.1-1.9-0.1-3.4-0.3-4.8q-2.6-18.5-5.4-37-2.8-19.1-5.8-38.2-2.3-14.2-4.7-28.5c-0.9-5.3-1.5-10.6-4.5-15.3-6.6-10.1-16.2-14.1-27.7-14.8-9.5-0.5-18.7 1.6-27.9 3.4-25.3 5-49.9 12.8-73.7 22.7-14.8 6.1-29.3 12.8-43.9 19.2-0.8 0.3-1.5 0.9-2.4 1.5q15.9 7.3 30.7 14.2v9.7c-2.2-0.8-4-1.5-5.6-2.3-15.2-7-30.2-14.1-45.4-21.1-23-10.6-46.1-21.3-69.2-31.8-10.8-4.8-21.8-9.2-32.8-13.4-6.7-2.6-13.6-2.8-20.6-0.6-10.9 3.5-18 10.4-20.3 21.8-1.3 6.8-2.3 13.7-3.4 20.6q-3.1 19-6.1 38.1-2.4 15.2-4.7 30.5c-1.3 8.6-2.6 17.2-3.8 26.1zm-196.6-103.4c-10.5-7.2-78.1-29-85.4-27.8 24.6 11.1 49.6 22.4 74.4 33.6 3.8-2 7.3-3.9 11-5.8z"/>
			<path fill-rule="evenodd" class="red" d="m167.9 328.3c-8.5-2.1-16.5-3.9-24.6-6-32.5-8-63.9-18.9-93.6-34.4-13.7-7.2-26.9-15.3-37.3-27.2-4.9-5.6-9.3-11.5-11.1-18.9-3.2-12.7-0.7-24.2 7.5-34.5 8.1-10 18.4-17.2 29.6-23.3 17.1-9.3 35.3-15.7 54.1-20.7 20.6-5.6 41.5-9.5 62.6-12.6 4.2-0.6 8.5-0.8 13.3-1.2-0.6 4.4-1.2 8-1.6 11.1-12.1 2-23.8 3.6-35.4 5.9-28.3 5.6-56.3 12.3-82.4 25.3-10.4 5.1-20.5 10.7-28.6 19.3-5.1 5.5-8.6 11.8-9.1 19.3-0.2 3.6 0.7 7.6 2.1 10.9 1.7 4 4.3 7.8 7.1 11.1 9.6 11.3 22.3 18.5 35.3 25.2 19.8 10.1 40.2 18.7 61.6 24.7 18.9 5.2 37.9 10 57 14.2 17 3.7 34.3 6.2 51.5 9.1 8.4 1.4 16.9 2.8 25.4 3.8 8.2 1.1 16.5 1.8 24.7 2.6 12.2 1.1 24.3 2.4 36.5 3.2 12.1 0.7 24.2 1 36.3 1.3 10.2 0.3 20.4 0.5 30.6 0.4 23.3-0.3 46.5-0.8 69.7-2.7 13.1-1.1 26.2-2.3 39.2-3.9 26-3.1 51.8-7 77.5-12.2 29.9-6 59.7-13 88.5-23.5 20.5-7.4 40.5-15.9 58.8-28.1 7.6-5.1 14.7-11 19.9-18.7 8.1-11.8 7.4-23.3-1.8-34.4-5-5.9-11.2-10.4-17.8-14.4-15.4-9.4-31.9-16-49.1-21.1-19.3-5.8-39-10.1-58.8-13.5-7.4-1.2-14.8-2.2-22.8-3.4-0.6-3.2-1.2-6.7-1.9-10.7 2.9 0 5.5-0.3 8 0.1 11.4 1.7 22.8 3.2 34.1 5.5 14.3 2.9 28.6 6 42.6 9.8 21.9 6.1 42.8 14.7 61.3 28.1 9.4 6.8 17.3 15 21.2 26.3 4.1 12 1.9 23.3-5.1 33.7-7.3 10.6-17.1 18.6-27.9 25.3-19.6 12.3-40.8 21.2-62.5 28.9-22.7 8.1-46.1 14-69.7 19.2-1.3 0.3-2.6 0.6-4.3 1-1.3 6.2-2.7 12.5-4 18.7-4.8 23.3-9.6 46.7-14.3 70-5 24.4-9.8 48.8-14.7 73.2-3 14.8-5.9 29.6-9.1 44.4-0.5 2.3-2.1 4.7-3.7 6.5-10.1 11.4-20.3 22.6-30.6 33.8-16.6 18.2-33.1 36.4-49.8 54.5-12.3 13.4-24.7 26.6-37.2 40h-84.4c-10.3-11.1-20.8-22.3-31.2-33.5q-30.9-33.6-61.7-67.2c-7.9-8.6-15.6-17.4-23.7-25.8-3.6-3.8-5.5-8.1-6.4-13.1-4.4-22.7-9-45.3-13.5-67.9q-5-25.6-10.1-51.2-6.2-31.2-12.3-62.3c-1.3-6.6-2.6-13.2-3.9-20zm35.5 123.2c36.1 33.8 72.5 67.9 108.9 101.9 15-5.7 29.7-11.3 44.8-17 3.4 3.5 6.8 7.1 10.4 10.9v-38.9h-20.8v-136.3c-0.7 0.4-1 0.5-1.2 0.7-0.7 0.8-1.4 1.6-2.2 2.4-9.6 10-20.4 18.3-33.6 22.9-15.9 5.7-32 7.3-48.7 3.5-16.4-3.8-31.1-11.1-43.9-21.9-10.3-8.8-20-18.3-30-27.5q-1.5-1.3-2.9-2.6-0.5 0.3-0.9 0.5c6.6 33.6 13.3 67.3 20.1 101.4zm183.3 84.8q23.7 8.8 46.7 17.4c6.1-5.7 11.8-11 17.6-16.3 14.7-13.5 29.4-27.1 44.1-40.7 1-0.9 1.8-2 2.5-3.2 8.6-14.6 17.4-29 25.6-43.8 10.6-18.9 20.6-38.1 30.9-57.1 0.5-1 0.8-2 1-3.1q2.7-13.6 5.3-27.2c0.8-3.9 1.5-7.9 2.2-11.9-2.7 1.5-4.7 3.2-6.7 5-8.8 7.9-17.2 16.3-26.4 23.7-21.5 17.2-45.8 26.7-73.9 24.1-17.9-1.7-33.8-8.5-47.4-20.2-4.2-3.5-7.8-7.6-12.4-12.1v137.8h-19.2v39.2c3.6-4.2 6.9-7.9 10.1-11.6zm36.9 108.1c0.6-0.5 0.8-0.6 1-0.8 24-26.2 48-52.4 71.9-78.6 9.3-10.2 18.4-20.7 27.5-31.1 1.3-1.5 2.4-3.4 2.8-5.3 3.5-17.1 6.9-34.3 10.2-51.5 0.6-2.6 1-5.3 1.5-8.2-43.8 40.5-87.1 80.6-130.3 120.6h-31.9c0.3 18.4-0.2 36.6 0.2 54.9zm-86.1-54.9c-43.3-40.4-86.6-80.7-130.5-121.6 0.2 1.9 0.2 2.9 0.4 3.8 3.2 16.3 6.6 32.5 9.5 48.8 1.4 7.4 4.1 13.6 9.3 19.2 18.2 19.5 36 39.5 54.1 59.2 13.9 15.2 28.1 30.4 41.9 45.3h45.4v-54.7zm57.9-239.6c3.6 7.3 7.6 13.6 12.6 19 20.1 22 45.2 28.8 73.9 23.2 16.3-3.2 30.7-11 43.1-21.7 13.7-11.7 26.6-24.3 39.8-36.6 0.6-0.5 1-1.3 1.4-1.9-28.3 4.1-56.4 8.3-84.5 12.3-28.4 4-56.9 5.4-86.3 5.7zm-47.1 1.1q-0.4-0.6-0.7-1.1c-56.2-0.4-111.5-8.5-166.7-18.4 0.9 1.6 1.9 2.9 3.1 4.1q6.5 6.4 13 12.7c11.4 11 22.8 22.2 36.1 30.9 20.8 13.7 43.2 18.6 67.6 11.8 16.3-4.7 29.5-14 39.6-27.7 2.9-3.9 5.3-8.2 8-12.3zm8.7 145.3h29.9v-145.8h-29.9zm68.2 64.3q-0.2-0.3-0.5-0.6h-48.1v19.1h28.5c6.8-6.2 13.4-12.3 20.1-18.5zm-84.5 18.3h26.9v-18.8h-47.5c7.3 6.7 14 12.8 20.6 18.8zm207.3-153.5l-0.4-0.1c-8.7 15.3-17.3 30.6-26.3 46.6 7.3-6.7 14.1-12.9 20.9-19.2q2.9-13.6 5.8-27.3zm-131.7 227.5h-39.4v6h33.7c1.8-1.9 3.4-3.6 5.7-6zm-86.4-0.1c2.3 2.5 3.9 4.4 5.3 6h32.3v-6z"/>
		</g>
	</g>
</svg>
